<?xml version="1.0" encoding="utf-8" ?>
<!DOCTYPE svg PUBLIC "-//W3C//DTD SVG 1.1//EN" "http://www.w3.org/Graphics/SVG/1.1/DTD/svg11.dtd">
<svg height="1393" version="1.1" width="1051" xmlns="http://www.w3.org/2000/svg">
<polygon fill="#ffffff" points="42,790 368,790 368,814 417,814 417,1365 42,1365 42,790" stroke="#ffffff" stroke-width="1"/>
<rect fill="none" height="24" stroke="#000000" stroke-width="1" width="326" x="42" y="790"/>
<text font-family="Dialog" font-size="12" x="47" y="804">
com::lab111::picturetwister::process::app::image::util</text>
<rect fill="none" height="551" stroke="#000000" stroke-width="1" width="375" x="42" y="814"/>
<polygon fill="#ffffff" points="42,14 856,14 856,38 905,38 905,765 42,765 42,14" stroke="#ffffff" stroke-width="1"/>
<rect fill="none" height="24" stroke="#000000" stroke-width="1" width="814" x="42" y="14"/>
<text font-family="Dialog" font-size="12" x="47" y="28">
com::lab111::picturetwister::imageutil</text>
<rect fill="none" height="727" stroke="#000000" stroke-width="1" width="863" x="42" y="38"/>
<rect fill="#ffffff" height="258" stroke="#ffffff" stroke-width="1" width="426" x="434" y="326"/>
<rect fill="none" height="258" stroke="#000000" stroke-width="1" width="426" x="434" y="326"/>
<text font-family="Dialog" font-size="12" x="605" y="340">
BrightnessTool</text>
<rect fill="#000000" height="1" stroke="#000000" stroke-width="1" width="426" x="434" y="350"/>
<rect fill="#000000" height="1" stroke="#000000" stroke-width="1" width="426" x="434" y="371"/>
<line fill="#000000" stroke="#000000" stroke-width="1" x1="438" x2="774" y1="387" y2="387"/>
<text font-family="Dialog" font-size="12" x="438" y="386">
getIntBrightnessMatrix(imageRGB : int[][],scales : float[]) : int[][]</text>
<line fill="#000000" stroke="#000000" stroke-width="1" x1="438" x2="798" y1="404" y2="404"/>
<text font-family="Dialog" font-size="12" x="438" y="403">
getFloatBrightnessMatrix(imageRGB : int[][],scales : float[]) : float[][]</text>
<line fill="#000000" stroke="#000000" stroke-width="1" x1="438" x2="856" y1="421" y2="421"/>
<text font-family="Dialog" font-size="12" x="438" y="420">
getFloatBrightnessMatrix(imageRGB : Vector3D[][],scales : Vector3D) : float[][]</text>
<line fill="#000000" stroke="#000000" stroke-width="1" x1="438" x2="832" y1="438" y2="438"/>
<text font-family="Dialog" font-size="12" x="438" y="437">
getIntBrightnessMatrix(imageRGB : Vector3D[][],scales : Vector3D) : int[][]</text>
<line fill="#000000" stroke="#000000" stroke-width="1" x1="438" x2="733" y1="455" y2="455"/>
<text font-family="Dialog" font-size="12" x="438" y="454">
getIntBrightnessMatrix(imageRGB : Vector3D[][]) : int[][]</text>
<line fill="#000000" stroke="#000000" stroke-width="1" x1="438" x2="757" y1="472" y2="472"/>
<text font-family="Dialog" font-size="12" x="438" y="471">
getFloatBrightnessMatrix(imageRGB : Vector3D[][]) : float[][]</text>
<line fill="#000000" stroke="#000000" stroke-width="1" x1="438" x2="696" y1="489" y2="489"/>
<text font-family="Dialog" font-size="12" x="438" y="488">
getIntBrightnessMatrix(imageRGB : int[][]) : int[][]</text>
<line fill="#000000" stroke="#000000" stroke-width="1" x1="438" x2="720" y1="506" y2="506"/>
<text font-family="Dialog" font-size="12" x="438" y="505">
getFloatBrightnessMatrix(imageRGB : int[][]) : float[][]</text>
<line fill="#000000" stroke="#000000" stroke-width="1" x1="438" x2="723" y1="523" y2="523"/>
<text font-family="Dialog" font-size="12" x="438" y="522">
getIntBrightnessMatrixHard(imageRGB : int[][]) : int[][]</text>
<line fill="#000000" stroke="#000000" stroke-width="1" x1="438" x2="747" y1="540" y2="540"/>
<text font-family="Dialog" font-size="12" x="438" y="539">
getFloatBrightnessMatrixHard(imageRGB : int[][]) : float[][]</text>
<line fill="#000000" stroke="#000000" stroke-width="1" x1="438" x2="683" y1="557" y2="557"/>
<text font-family="Dialog" font-size="12" x="438" y="556">
getGrayImageMatrix(imageRGB : int[][]) : int[][]</text>
<line fill="#000000" stroke="#000000" stroke-width="1" x1="438" x2="668" y1="574" y2="574"/>
<text font-family="Dialog" font-size="12" x="438" y="573">
getIntegralImage(imageRGB : int[][]) : int[][]</text>
<rect fill="#ffffff" height="173" stroke="#ffffff" stroke-width="1" width="338" x="58" y="230"/>
<rect fill="none" height="173" stroke="#000000" stroke-width="1" width="338" x="58" y="230"/>
<text font-family="Dialog" font-size="12" x="200" y="244">
ImageUtil</text>
<rect fill="#000000" height="1" stroke="#000000" stroke-width="1" width="338" x="58" y="254"/>
<rect fill="#000000" height="1" stroke="#000000" stroke-width="1" width="338" x="58" y="275"/>
<line fill="#000000" stroke="#000000" stroke-width="1" x1="62" x2="310" y1="291" y2="291"/>
<text font-family="Dialog" font-size="12" x="62" y="290">
loadImage(fileName : String) : BufferedImage</text>
<line fill="#000000" stroke="#000000" stroke-width="1" x1="62" x2="392" y1="308" y2="308"/>
<text font-family="Dialog" font-size="12" x="62" y="307">
saveImage(image : BufferedImage,destination : String) : void</text>
<line fill="#000000" stroke="#000000" stroke-width="1" x1="62" x2="337" y1="325" y2="325"/>
<text font-family="Dialog" font-size="12" x="62" y="324">
getBrightnessMatrix(image : BufferedImage) : int[][]</text>
<line fill="#000000" stroke="#000000" stroke-width="1" x1="62" x2="290" y1="342" y2="342"/>
<text font-family="Dialog" font-size="12" x="62" y="341">
getIntMatrix(image : BufferedImage) : int[][]</text>
<line fill="#000000" stroke="#000000" stroke-width="1" x1="62" x2="320" y1="359" y2="359"/>
<text font-family="Dialog" font-size="12" x="62" y="358">
makeImage(colorsRGB : int[][]) : BufferedImage</text>
<line fill="#000000" stroke="#000000" stroke-width="1" x1="62" x2="341" y1="376" y2="376"/>
<text font-family="Dialog" font-size="12" x="62" y="375">
makeGray(image : BufferedImage) : BufferedImage</text>
<line fill="#000000" stroke="#000000" stroke-width="1" x1="62" x2="302" y1="393" y2="393"/>
<text font-family="Dialog" font-size="12" x="62" y="392">
getGrayMatrix(image : BufferedImage) : int[][]</text>
<rect fill="#ffffff" height="139" stroke="#ffffff" stroke-width="1" width="815" x="58" y="606"/>
<rect fill="none" height="139" stroke="#000000" stroke-width="1" width="815" x="58" y="606"/>
<text font-family="Dialog" font-size="12" x="427" y="620">
DisplayerTool</text>
<rect fill="#000000" height="1" stroke="#000000" stroke-width="1" width="815" x="58" y="630"/>
<rect fill="#000000" height="1" stroke="#000000" stroke-width="1" width="815" x="58" y="651"/>
<line fill="#000000" stroke="#000000" stroke-width="1" x1="62" x2="321" y1="667" y2="667"/>
<text font-family="Dialog" font-size="12" x="62" y="666">
makeImage(imageRGB : int[][]) : BufferedImage</text>
<line fill="#000000" stroke="#000000" stroke-width="1" x1="62" x2="331" y1="684" y2="684"/>
<text font-family="Dialog" font-size="12" x="62" y="683">
makeImage(imageRGB : float[][]) : BufferedImage</text>
<line fill="#000000" stroke="#000000" stroke-width="1" x1="62" x2="287" y1="701" y2="701"/>
<text font-family="Dialog" font-size="12" x="62" y="700">
rasterize(reticle : Reticle) : BufferedImage</text>
<line fill="#000000" stroke="#000000" stroke-width="1" x1="62" x2="568" y1="718" y2="718"/>
<text font-family="Dialog" font-size="12" x="62" y="717">
rasterizeWithGrid(reticle : Reticle,gridColor : int,background : BufferedImage) : BufferedImage</text>
<line fill="#000000" stroke="#000000" stroke-width="1" x1="62" x2="869" y1="735" y2="735"/>
<text font-family="Dialog" font-size="12" x="62" y="734">
rasterize(shapes : ArrayList,background : BufferedImage,penColor : int,bgColor : int,drawMode : Mode,viewport : Rect,scale : double) : BufferedImage</text>
<rect fill="#ffffff" height="122" stroke="#ffffff" stroke-width="1" width="465" x="426" y="54"/>
<rect fill="none" height="122" stroke="#000000" stroke-width="1" width="465" x="426" y="54"/>
<text font-family="Dialog" font-size="12" x="588" y="68">
MatrixRepresentationTool</text>
<rect fill="#000000" height="1" stroke="#000000" stroke-width="1" width="465" x="426" y="78"/>
<rect fill="#000000" height="1" stroke="#000000" stroke-width="1" width="465" x="426" y="99"/>
<line fill="#000000" stroke="#000000" stroke-width="1" x1="430" x2="688" y1="115" y2="115"/>
<text font-family="Dialog" font-size="12" x="430" y="114">
getIntColorMatrix(image : BufferedImage) : int[][]</text>
<line fill="#000000" stroke="#000000" stroke-width="1" x1="430" x2="712" y1="132" y2="132"/>
<text font-family="Dialog" font-size="12" x="430" y="131">
getFloatColorMatrix(image : BufferedImage) : float[][]</text>
<line fill="#000000" stroke="#000000" stroke-width="1" x1="430" x2="746" y1="149" y2="149"/>
<text font-family="Dialog" font-size="12" x="430" y="148">
getVectorColorMatrix(image : BufferedImage) : Vector3D[][]</text>
<line fill="#000000" stroke="#000000" stroke-width="1" x1="430" x2="887" y1="166" y2="166"/>
<text font-family="Dialog" font-size="12" x="430" y="165">
getChannels(imageRGB : int[][],rChannel : int[],gChannel : int[],bChannel : int[]) : void</text>
<rect fill="#ffffff" height="88" stroke="#ffffff" stroke-width="1" width="361" x="50" y="54"/>
<rect fill="none" height="88" stroke="#000000" stroke-width="1" width="361" x="50" y="54"/>
<text font-family="Dialog" font-size="12" x="180" y="68">
LoadAndSaveTool</text>
<rect fill="#000000" height="1" stroke="#000000" stroke-width="1" width="361" x="50" y="78"/>
<rect fill="#000000" height="1" stroke="#000000" stroke-width="1" width="361" x="50" y="99"/>
<line fill="#000000" stroke="#000000" stroke-width="1" x1="54" x2="302" y1="115" y2="115"/>
<text font-family="Dialog" font-size="12" x="54" y="114">
loadImage(fileName : String) : BufferedImage</text>
<line fill="#000000" stroke="#000000" stroke-width="1" x1="54" x2="407" y1="132" y2="132"/>
<text font-family="Dialog" font-size="12" x="54" y="131">
saveImage(image : BufferedImage,destination : String) : boolean</text>
<polygon fill="#ffffff" points="58,422 274,422 284,432 284,461 58,461 58,422" stroke="#ffffff" stroke-width="1"/>
<polyline fill="none" points="58,422 274,422 284,432 284,461 58,461 58,422" stroke="#000000" stroke-width="1"/>
<polygon fill="#ffffff" points="274,422 284,432 274,432 274,422" stroke="#ffffff" stroke-width="1"/>
<polyline fill="none" points="274,422 284,432 274,432 274,422" stroke="#000000" stroke-width="1"/>
<text font-family="Dialog" font-size="12" x="61" y="438">
Клас з найбільш використовуваними </text>
<text font-family="Dialog" font-size="12" x="61" y="454">
методами інших класів пакету.</text>
<line fill="#333399" stroke="#333399" stroke-width="1" x1="159" x2="159" y1="414" y2="409"/>
<line fill="#333399" stroke="#333399" stroke-width="1" x1="159" x2="159" y1="404" y2="399"/>
<polygon fill="#ffffff" points="154,158 368,158 378,168 378,213 154,213 154,158" stroke="#ffffff" stroke-width="1"/>
<polyline fill="none" points="154,158 368,158 378,168 378,213 154,213 154,158" stroke="#000000" stroke-width="1"/>
<polygon fill="#ffffff" points="368,158 378,168 368,168 368,158" stroke="#ffffff" stroke-width="1"/>
<polyline fill="none" points="368,158 378,168 368,168 368,158" stroke="#000000" stroke-width="1"/>
<text font-family="Dialog" font-size="12" x="157" y="174">
Клас з методами для завантаження </text>
<text font-family="Dialog" font-size="12" x="157" y="190">
або збереження зображення за </text>
<text font-family="Dialog" font-size="12" x="157" y="206">
вказаним шляхом.</text>
<line fill="#333399" stroke="#333399" stroke-width="1" x1="274" x2="274" y1="158" y2="153"/>
<line fill="#333399" stroke="#333399" stroke-width="1" x1="274" x2="274" y1="148" y2="143"/>
<polygon fill="#ffffff" points="658,206 850,206 860,216 860,307 658,307 658,206" stroke="#ffffff" stroke-width="1"/>
<polyline fill="none" points="658,206 850,206 860,216 860,307 658,307 658,206" stroke="#000000" stroke-width="1"/>
<polygon fill="#ffffff" points="850,206 860,216 850,216 850,206" stroke="#ffffff" stroke-width="1"/>
<polyline fill="none" points="850,206 860,216 850,216 850,206" stroke="#000000" stroke-width="1"/>
<text font-family="Dialog" font-size="12" x="661" y="222">
Клас з методами отримання </text>
<text font-family="Dialog" font-size="12" x="661" y="238">
матричного виду зображень, в </text>
<text font-family="Dialog" font-size="12" x="661" y="254">
якості параметрів яких </text>
<text font-family="Dialog" font-size="12" x="661" y="270">
виступають зображення, а </text>
<text font-family="Dialog" font-size="12" x="661" y="286">
повертають вони матриці </text>
<text font-family="Dialog" font-size="12" x="661" y="302">
(двовимірні масиви) різних типів.</text>
<line fill="#333399" stroke="#333399" stroke-width="1" x1="754" x2="754" y1="206" y2="201"/>
<line fill="#333399" stroke="#333399" stroke-width="1" x1="754" x2="754" y1="196" y2="191"/>
<line fill="#333399" stroke="#333399" stroke-width="1" x1="754" x2="754" y1="186" y2="181"/>
<line fill="#333399" stroke="#333399" stroke-width="1" x1="754" x2="754" y1="176" y2="175"/>
<polygon fill="#ffffff" points="474,214 630,214 640,224 640,299 474,299 474,214" stroke="#ffffff" stroke-width="1"/>
<polyline fill="none" points="474,214 630,214 640,224 640,299 474,299 474,214" stroke="#000000" stroke-width="1"/>
<polygon fill="#ffffff" points="630,214 640,224 630,224 630,214" stroke="#ffffff" stroke-width="1"/>
<polyline fill="none" points="630,214 640,224 630,224 630,214" stroke="#000000" stroke-width="1"/>
<text font-family="Dialog" font-size="12" x="477" y="230">
Клас з методами для </text>
<text font-family="Dialog" font-size="12" x="477" y="246">
отримання матриць </text>
<text font-family="Dialog" font-size="12" x="477" y="262">
яскравостей зображеннь, </text>
<text font-family="Dialog" font-size="12" x="477" y="278">
які представлені у </text>
<text font-family="Dialog" font-size="12" x="477" y="294">
матричному вигляді.</text>
<line fill="#333399" stroke="#333399" stroke-width="1" x1="554" x2="554" y1="299" y2="304"/>
<line fill="#333399" stroke="#333399" stroke-width="1" x1="554" x2="554" y1="309" y2="314"/>
<line fill="#333399" stroke="#333399" stroke-width="1" x1="554" x2="554" y1="319" y2="324"/>
<polygon fill="#ffffff" points="58,486 276,486 286,496 286,555 58,555 58,486" stroke="#ffffff" stroke-width="1"/>
<polyline fill="none" points="58,486 276,486 286,496 286,555 58,555 58,486" stroke="#000000" stroke-width="1"/>
<polygon fill="#ffffff" points="276,486 286,496 276,496 276,486" stroke="#ffffff" stroke-width="1"/>
<polyline fill="none" points="276,486 286,496 276,496 276,486" stroke="#000000" stroke-width="1"/>
<text font-family="Dialog" font-size="12" x="61" y="502">
Клас з методами для відображення </text>
<text font-family="Dialog" font-size="12" x="61" y="518">
(растеризації) зображення на основі </text>
<text font-family="Dialog" font-size="12" x="61" y="534">
його сіткової моделі з </text>
<text font-family="Dialog" font-size="12" x="61" y="550">
відображенням сітки чи без неї.</text>
<line fill="#333399" stroke="#333399" stroke-width="1" x1="159" x2="159" y1="555" y2="560"/>
<line fill="#333399" stroke="#333399" stroke-width="1" x1="159" x2="159" y1="565" y2="570"/>
<line fill="#333399" stroke="#333399" stroke-width="1" x1="159" x2="159" y1="575" y2="580"/>
<line fill="#333399" stroke="#333399" stroke-width="1" x1="159" x2="159" y1="585" y2="590"/>
<line fill="#333399" stroke="#333399" stroke-width="1" x1="159" x2="159" y1="595" y2="600"/>
<line fill="#333399" stroke="#333399" stroke-width="1" x1="159" x2="159" y1="605" y2="606"/>
<polyline fill="none" points="106,230 106,141" stroke="#000000" stroke-width="1"/>
<line fill="#000000" stroke="#000000" stroke-width="1" x1="113" x2="106" y1="153" y2="141"/>
<line fill="#000000" stroke="#000000" stroke-width="1" x1="99" x2="106" y1="153" y2="141"/>
<polyline fill="none" points="343,402 343,606" stroke="#000000" stroke-width="1"/>
<line fill="#000000" stroke="#000000" stroke-width="1" x1="336" x2="343" y1="594" y2="606"/>
<line fill="#000000" stroke="#000000" stroke-width="1" x1="350" x2="343" y1="594" y2="606"/>
<polyline fill="none" points="395,238 458,238 458,175" stroke="#000000" stroke-width="1"/>
<line fill="#000000" stroke="#000000" stroke-width="1" x1="465" x2="458" y1="187" y2="175"/>
<line fill="#000000" stroke="#000000" stroke-width="1" x1="451" x2="458" y1="187" y2="175"/>
<polyline fill="none" points="395,270 458,270 458,326" stroke="#000000" stroke-width="1"/>
<line fill="#000000" stroke="#000000" stroke-width="1" x1="451" x2="458" y1="314" y2="326"/>
<line fill="#000000" stroke="#000000" stroke-width="1" x1="465" x2="458" y1="314" y2="326"/>
<rect fill="#ffffff" height="501" stroke="#ffffff" stroke-width="1" width="382" x="474" y="878"/>
<rect fill="none" height="501" stroke="#000000" stroke-width="1" width="382" x="474" y="878"/>
<text font-family="Dialog" font-size="12" x="539" y="892">
com::lab111::picturetwister::vectorized::Reticle</text>
<rect fill="#000000" height="1" stroke="#000000" stroke-width="1" width="382" x="474" y="902"/>
<text font-family="Dialog" font-size="12" x="478" y="917">
points : Point[][]</text>
<text font-family="Dialog" font-size="12" x="478" y="934">
weightFunction : Function</text>
<text font-family="Dialog" font-size="12" x="478" y="951">
vectorPixels : VectorPixel[][]</text>
<text font-family="Dialog" font-size="12" x="478" y="968">
transform : MatrixTransform</text>
<text font-family="Dialog" font-size="12" x="478" y="985">
colorMatrix : int[][]</text>
<text font-family="Dialog" font-size="12" x="478" y="1002">
height : int</text>
<text font-family="Dialog" font-size="12" x="478" y="1019">
width : int</text>
<rect fill="#000000" height="1" stroke="#000000" stroke-width="1" width="382" x="474" y="1029"/>
<text font-family="Dialog" font-size="12" x="478" y="1044">
&lt;&lt;create&gt;&gt; Reticle(colorsRGB : int[][])</text>
<line fill="#000000" stroke="#000000" stroke-width="1" x1="478" x2="725" y1="1062" y2="1062"/>
<text font-family="Dialog" font-size="12" x="478" y="1061">
createPointSet(width : int,height : int) : Point[][]</text>
<line fill="#000000" stroke="#000000" stroke-width="1" x1="478" x2="852" y1="1079" y2="1079"/>
<text font-family="Dialog" font-size="12" x="478" y="1078">
createConvexHullsSet(intMatrix : int[][],points : Point[][]) : VectorPixel[][]</text>
<text font-family="Dialog" font-size="12" x="478" y="1095">
scale(mx : double,my : double) : void</text>
<text font-family="Dialog" font-size="12" x="478" y="1112">
rotate(angle : double) : void</text>
<text font-family="Dialog" font-size="12" x="478" y="1129">
transfer(transferX : double,transferY : double) : void</text>
<text font-family="Dialog" font-size="12" x="478" y="1146">
deformation() : void</text>
<text font-family="Dialog" font-size="12" x="478" y="1163">
deformation1() : void</text>
<text font-family="Dialog" font-size="12" x="478" y="1180">
getPoints() : Point[][]</text>
<text font-family="Dialog" font-size="12" x="478" y="1197">
getConvexHulls() : VectorPixel[][]</text>
<text font-family="Dialog" font-size="12" x="478" y="1214">
getPointsXY() : double[][]</text>
<text font-family="Dialog" font-size="12" x="478" y="1231">
cloneConvexHulls() : VectorPixel[][]</text>
<text font-family="Dialog" font-size="12" x="478" y="1248">
clonePoints() : Point[][]</text>
<text font-family="Dialog" font-size="12" x="478" y="1265">
getColorMatrix() : int[][]</text>
<text font-family="Dialog" font-size="12" x="478" y="1282">
getHeight() : int</text>
<text font-family="Dialog" font-size="12" x="478" y="1299">
getWidth() : int</text>
<text font-family="Dialog" font-size="12" x="478" y="1316">
getWeightFunction() : Function</text>
<text font-family="Dialog" font-size="12" x="478" y="1333">
setWeightFunction(weightFunction : Function) : void</text>
<text font-family="Dialog" font-size="12" x="478" y="1350">
getConnectedPixels(p : Point) : ArrayList</text>
<line fill="#000000" stroke="#000000" stroke-width="1" x1="478" x2="617" y1="1368" y2="1368"/>
<text font-family="Dialog" font-size="12" x="478" y="1367">
main(args : String[]) : void</text>
<rect fill="#ffffff" height="347" stroke="#ffffff" stroke-width="1" width="329" x="66" y="846"/>
<rect fill="none" height="347" stroke="#000000" stroke-width="1" width="329" x="66" y="846"/>
<text font-family="Dialog" font-size="12" x="71" y="860">
com::lab111::picturetwister::process::app::image::util::Rect</text>
<rect fill="#000000" height="1" stroke="#000000" stroke-width="1" width="329" x="66" y="870"/>
<text font-family="Dialog" font-size="12" x="70" y="885">
left : int</text>
<text font-family="Dialog" font-size="12" x="70" y="902">
right : int</text>
<text font-family="Dialog" font-size="12" x="70" y="919">
top : int</text>
<text font-family="Dialog" font-size="12" x="70" y="936">
bottom : int</text>
<rect fill="#000000" height="1" stroke="#000000" stroke-width="1" width="329" x="66" y="946"/>
<line fill="#000000" stroke="#000000" stroke-width="1" x1="70" x2="224" y1="962" y2="962"/>
<text font-family="Dialog" font-size="12" x="70" y="961">
parseRect(str : String) : Rect</text>
<text font-family="Dialog" font-size="12" x="70" y="978">
&lt;&lt;create&gt;&gt; Rect(left : int,right : int,top : int,bottom : int)</text>
<text font-family="Dialog" font-size="12" x="70" y="995">
isCorrect() : boolean</text>
<text font-family="Dialog" font-size="12" x="70" y="1012">
getBounds() : int[]</text>
<text font-family="Dialog" font-size="12" x="70" y="1029">
getWidth() : int</text>
<text font-family="Dialog" font-size="12" x="70" y="1046">
getHeight() : int</text>
<text font-family="Dialog" font-size="12" x="70" y="1063">
getLeft() : int</text>
<text font-family="Dialog" font-size="12" x="70" y="1080">
setLeft(left : int) : void</text>
<text font-family="Dialog" font-size="12" x="70" y="1097">
getRight() : int</text>
<text font-family="Dialog" font-size="12" x="70" y="1114">
setRight(right : int) : void</text>
<text font-family="Dialog" font-size="12" x="70" y="1131">
getTop() : int</text>
<text font-family="Dialog" font-size="12" x="70" y="1148">
setTop(top : int) : void</text>
<text font-family="Dialog" font-size="12" x="70" y="1165">
getBottom() : int</text>
<text font-family="Dialog" font-size="12" x="70" y="1182">
setBottom(bottom : int) : void</text>
<rect fill="#ffffff" height="142" stroke="#ffffff" stroke-width="1" width="334" x="66" y="1206"/>
<rect fill="none" height="142" stroke="#000000" stroke-width="1" width="334" x="66" y="1206"/>
<text font-family="Dialog" font-size="12" x="71" y="1240">
com::lab111::picturetwister::process::app::image::util::Mode</text>
<text font-family="Dialog" font-size="12" x="184" y="1221">
&lt;&lt;enumeration&gt;&gt;</text>
<rect fill="#000000" height="1" stroke="#000000" stroke-width="1" width="334" x="66" y="1250"/>
<line fill="#000000" stroke="#000000" stroke-width="1" x1="70" x2="182" y1="1266" y2="1266"/>
<text font-family="Dialog" font-size="12" x="70" y="1265">
DRAW_CONTOURS</text>
<line fill="#000000" stroke="#000000" stroke-width="1" x1="70" x2="163" y1="1283" y2="1283"/>
<text font-family="Dialog" font-size="12" x="70" y="1282">
FILL_POLIGONS</text>
<line fill="#000000" stroke="#000000" stroke-width="1" x1="70" x2="157" y1="1300" y2="1300"/>
<text font-family="Dialog" font-size="12" x="70" y="1299">
DRAW_POINTS</text>
<line fill="#000000" stroke="#000000" stroke-width="1" x1="70" x2="142" y1="1317" y2="1317"/>
<text font-family="Dialog" font-size="12" x="70" y="1316">
FULL_MODE</text>
<rect fill="#000000" height="1" stroke="#000000" stroke-width="1" width="334" x="66" y="1326"/>
<rect fill="#ffffff" height="68" stroke="#ffffff" stroke-width="1" width="392" x="474" y="790"/>
<rect fill="none" height="68" stroke="#000000" stroke-width="1" width="392" x="474" y="790"/>
<text font-family="Dialog" font-size="12" x="479" y="804">
org::apache::commons::math3::geometry::euclidean::threed::Vector3D</text>
<rect fill="#000000" height="1" stroke="#000000" stroke-width="1" width="392" x="474" y="814"/>
<rect fill="#000000" height="1" stroke="#000000" stroke-width="1" width="392" x="474" y="835"/>
<polyline fill="none" points="458,744 458,1038 474,1038" stroke="#000000" stroke-width="1"/>
<line fill="#000000" stroke="#000000" stroke-width="1" x1="462" x2="474" y1="1045" y2="1038"/>
<line fill="#000000" stroke="#000000" stroke-width="1" x1="462" x2="474" y1="1031" y2="1038"/>
<polyline fill="none" points="890,62 930,62 930,838 865,838" stroke="#000000" stroke-width="1"/>
<line fill="#000000" stroke="#000000" stroke-width="1" x1="877" x2="865" y1="831" y2="838"/>
<line fill="#000000" stroke="#000000" stroke-width="1" x1="877" x2="865" y1="845" y2="838"/>
<polyline fill="none" points="859,342 890,342 890,806 865,806" stroke="#000000" stroke-width="1"/>
<line fill="#000000" stroke="#000000" stroke-width="1" x1="877" x2="865" y1="799" y2="806"/>
<line fill="#000000" stroke="#000000" stroke-width="1" x1="877" x2="865" y1="813" y2="806"/>
<polyline fill="none" points="386,744 386,846" stroke="#000000" stroke-width="1"/>
<line fill="#000000" stroke="#000000" stroke-width="1" x1="379" x2="386" y1="834" y2="846"/>
<line fill="#000000" stroke="#000000" stroke-width="1" x1="393" x2="386" y1="834" y2="846"/>
<polyline fill="none" points="434,744 434,1230 399,1230" stroke="#000000" stroke-width="1"/>
<line fill="#000000" stroke="#000000" stroke-width="1" x1="411" x2="399" y1="1223" y2="1230"/>
<line fill="#000000" stroke="#000000" stroke-width="1" x1="411" x2="399" y1="1237" y2="1230"/>
<line fill="#000000" stroke="#000000" stroke-width="1" x1="360" x2="360" y1="744" y2="749"/>
<line fill="#000000" stroke="#000000" stroke-width="1" x1="360" x2="360" y1="754" y2="759"/>
<line fill="#000000" stroke="#000000" stroke-width="1" x1="360" x2="360" y1="764" y2="769"/>
<line fill="#000000" stroke="#000000" stroke-width="1" x1="360" x2="360" y1="774" y2="779"/>
<line fill="#000000" stroke="#000000" stroke-width="1" x1="360" x2="360" y1="784" y2="789"/>
<line fill="#000000" stroke="#000000" stroke-width="1" x1="353" x2="360" y1="778" y2="790"/>
<line fill="#000000" stroke="#000000" stroke-width="1" x1="367" x2="360" y1="778" y2="790"/>
</svg>
